<?xml version="1.0" encoding="utf-8" standalone="no"?>
<!DOCTYPE svg PUBLIC "-//W3C//DTD SVG 1.1//EN"
  "http://www.w3.org/Graphics/SVG/1.1/DTD/svg11.dtd">
<svg xmlns:xlink="http://www.w3.org/1999/xlink" width="576pt" height="432pt" viewBox="0 0 576 432" xmlns="http://www.w3.org/2000/svg" version="1.1">
 <metadata>
  <rdf:RDF xmlns:dc="http://purl.org/dc/elements/1.1/" xmlns:cc="http://creativecommons.org/ns#" xmlns:rdf="http://www.w3.org/1999/02/22-rdf-syntax-ns#">
   <cc:Work>
    <dc:type rdf:resource="http://purl.org/dc/dcmitype/StillImage"/>
    <dc:date>2022-10-31T09:33:29.925835</dc:date>
    <dc:format>image/svg+xml</dc:format>
    <dc:creator>
     <cc:Agent>
      <dc:title>Matplotlib v3.6.1, https://matplotlib.org/</dc:title>
     </cc:Agent>
    </dc:creator>
   </cc:Work>
  </rdf:RDF>
 </metadata>
 <defs>
  <style type="text/css">*{stroke-linejoin: round; stroke-linecap: butt}</style>
 </defs>
 <g id="figure_1">
  <g id="patch_1">
   <path d="M 0 432 
L 576 432 
L 576 0 
L 0 0 
L 0 432 
z
" style="fill: none"/>
  </g>
  <g id="axes_1">
   <g id="patch_2">
    <path d="M 72 384.48 
L 518.4 384.48 
L 518.4 51.84 
L 72 51.84 
L 72 384.48 
z
" style="fill: none"/>
   </g>
   <g id="PathCollection_1">
    <defs>
     <path id="m01440bb05a" d="M 0 3 
C 0.795609 3 1.55874 2.683901 2.12132 2.12132 
C 2.683901 1.55874 3 0.795609 3 0 
C 3 -0.795609 2.683901 -1.55874 2.12132 -2.12132 
C 1.55874 -2.683901 0.795609 -3 0 -3 
C -0.795609 -3 -1.55874 -2.683901 -2.12132 -2.12132 
C -2.683901 -1.55874 -3 -0.795609 -3 0 
C -3 0.795609 -2.683901 1.55874 -2.12132 2.12132 
C -1.55874 2.683901 -0.795609 3 0 3 
z
" style="stroke: #1f77b4"/>
    </defs>
    <g clip-path="url(#p8bf30ab03d)">
     <use xlink:href="#m01440bb05a" x="198.156522" y="188.809412" style="fill: #1f77b4; stroke: #1f77b4"/>
     <use xlink:href="#m01440bb05a" x="178.747826" y="237.727059" style="fill: #1f77b4; stroke: #1f77b4"/>
     <use xlink:href="#m01440bb05a" x="159.33913" y="218.16" style="fill: #1f77b4; stroke: #1f77b4"/>
     <use xlink:href="#m01440bb05a" x="149.634783" y="227.943529" style="fill: #1f77b4; stroke: #1f77b4"/>
     <use xlink:href="#m01440bb05a" x="188.452174" y="179.025882" style="fill: #1f77b4; stroke: #1f77b4"/>
     <use xlink:href="#m01440bb05a" x="227.269565" y="149.675294" style="fill: #1f77b4; stroke: #1f77b4"/>
     <use xlink:href="#m01440bb05a" x="149.634783" y="198.592941" style="fill: #1f77b4; stroke: #1f77b4"/>
     <use xlink:href="#m01440bb05a" x="188.452174" y="198.592941" style="fill: #1f77b4; stroke: #1f77b4"/>
     <use xlink:href="#m01440bb05a" x="130.226087" y="247.510588" style="fill: #1f77b4; stroke: #1f77b4"/>
     <use xlink:href="#m01440bb05a" x="178.747826" y="227.943529" style="fill: #1f77b4; stroke: #1f77b4"/>
     <use xlink:href="#m01440bb05a" x="227.269565" y="169.242353" style="fill: #1f77b4; stroke: #1f77b4"/>
     <use xlink:href="#m01440bb05a" x="169.043478" y="198.592941" style="fill: #1f77b4; stroke: #1f77b4"/>
     <use xlink:href="#m01440bb05a" x="169.043478" y="237.727059" style="fill: #1f77b4; stroke: #1f77b4"/>
     <use xlink:href="#m01440bb05a" x="120.521739" y="237.727059" style="fill: #1f77b4; stroke: #1f77b4"/>
     <use xlink:href="#m01440bb05a" x="266.086957" y="139.891765" style="fill: #1f77b4; stroke: #1f77b4"/>
     <use xlink:href="#m01440bb05a" x="256.382609" y="100.757647" style="fill: #1f77b4; stroke: #1f77b4"/>
     <use xlink:href="#m01440bb05a" x="227.269565" y="149.675294" style="fill: #1f77b4; stroke: #1f77b4"/>
     <use xlink:href="#m01440bb05a" x="198.156522" y="188.809412" style="fill: #1f77b4; stroke: #1f77b4"/>
     <use xlink:href="#m01440bb05a" x="256.382609" y="159.458824" style="fill: #1f77b4; stroke: #1f77b4"/>
     <use xlink:href="#m01440bb05a" x="198.156522" y="159.458824" style="fill: #1f77b4; stroke: #1f77b4"/>
     <use xlink:href="#m01440bb05a" x="227.269565" y="198.592941" style="fill: #1f77b4; stroke: #1f77b4"/>
     <use xlink:href="#m01440bb05a" x="198.156522" y="169.242353" style="fill: #1f77b4; stroke: #1f77b4"/>
     <use xlink:href="#m01440bb05a" x="149.634783" y="179.025882" style="fill: #1f77b4; stroke: #1f77b4"/>
     <use xlink:href="#m01440bb05a" x="198.156522" y="208.376471" style="fill: #1f77b4; stroke: #1f77b4"/>
     <use xlink:href="#m01440bb05a" x="169.043478" y="198.592941" style="fill: #1f77b4; stroke: #1f77b4"/>
     <use xlink:href="#m01440bb05a" x="188.452174" y="237.727059" style="fill: #1f77b4; stroke: #1f77b4"/>
     <use xlink:href="#m01440bb05a" x="188.452174" y="198.592941" style="fill: #1f77b4; stroke: #1f77b4"/>
     <use xlink:href="#m01440bb05a" x="207.86087" y="188.809412" style="fill: #1f77b4; stroke: #1f77b4"/>
     <use xlink:href="#m01440bb05a" x="207.86087" y="198.592941" style="fill: #1f77b4; stroke: #1f77b4"/>
     <use xlink:href="#m01440bb05a" x="159.33913" y="218.16" style="fill: #1f77b4; stroke: #1f77b4"/>
     <use xlink:href="#m01440bb05a" x="169.043478" y="227.943529" style="fill: #1f77b4; stroke: #1f77b4"/>
     <use xlink:href="#m01440bb05a" x="227.269565" y="198.592941" style="fill: #1f77b4; stroke: #1f77b4"/>
     <use xlink:href="#m01440bb05a" x="207.86087" y="130.108235" style="fill: #1f77b4; stroke: #1f77b4"/>
     <use xlink:href="#m01440bb05a" x="236.973913" y="120.324706" style="fill: #1f77b4; stroke: #1f77b4"/>
     <use xlink:href="#m01440bb05a" x="178.747826" y="227.943529" style="fill: #1f77b4; stroke: #1f77b4"/>
     <use xlink:href="#m01440bb05a" x="188.452174" y="218.16" style="fill: #1f77b4; stroke: #1f77b4"/>
     <use xlink:href="#m01440bb05a" x="236.973913" y="188.809412" style="fill: #1f77b4; stroke: #1f77b4"/>
     <use xlink:href="#m01440bb05a" x="178.747826" y="179.025882" style="fill: #1f77b4; stroke: #1f77b4"/>
     <use xlink:href="#m01440bb05a" x="130.226087" y="237.727059" style="fill: #1f77b4; stroke: #1f77b4"/>
     <use xlink:href="#m01440bb05a" x="198.156522" y="198.592941" style="fill: #1f77b4; stroke: #1f77b4"/>
     <use xlink:href="#m01440bb05a" x="188.452174" y="188.809412" style="fill: #1f77b4; stroke: #1f77b4"/>
     <use xlink:href="#m01440bb05a" x="139.930435" y="306.211765" style="fill: #1f77b4; stroke: #1f77b4"/>
     <use xlink:href="#m01440bb05a" x="130.226087" y="218.16" style="fill: #1f77b4; stroke: #1f77b4"/>
     <use xlink:href="#m01440bb05a" x="188.452174" y="188.809412" style="fill: #1f77b4; stroke: #1f77b4"/>
     <use xlink:href="#m01440bb05a" x="198.156522" y="159.458824" style="fill: #1f77b4; stroke: #1f77b4"/>
     <use xlink:href="#m01440bb05a" x="169.043478" y="237.727059" style="fill: #1f77b4; stroke: #1f77b4"/>
     <use xlink:href="#m01440bb05a" x="198.156522" y="159.458824" style="fill: #1f77b4; stroke: #1f77b4"/>
     <use xlink:href="#m01440bb05a" x="149.634783" y="218.16" style="fill: #1f77b4; stroke: #1f77b4"/>
     <use xlink:href="#m01440bb05a" x="217.565217" y="169.242353" style="fill: #1f77b4; stroke: #1f77b4"/>
     <use xlink:href="#m01440bb05a" x="188.452174" y="208.376471" style="fill: #1f77b4; stroke: #1f77b4"/>
    </g>
   </g>
   <g id="PathCollection_2">
    <defs>
     <path id="ma920b60192" d="M 0 3 
C 0.795609 3 1.55874 2.683901 2.12132 2.12132 
C 2.683901 1.55874 3 0.795609 3 0 
C 3 -0.795609 2.683901 -1.55874 2.12132 -2.12132 
C 1.55874 -2.683901 0.795609 -3 0 -3 
C -0.795609 -3 -1.55874 -2.683901 -2.12132 -2.12132 
C -2.683901 -1.55874 -3 -0.795609 -3 0 
C -3 0.795609 -2.683901 1.55874 -2.12132 2.12132 
C -1.55874 2.683901 -0.795609 3 0 3 
z
" style="stroke: #ff7f0e"/>
    </defs>
    <g clip-path="url(#p8bf30ab03d)">
     <use xlink:href="#ma920b60192" x="382.53913" y="218.16" style="fill: #ff7f0e; stroke: #ff7f0e"/>
     <use xlink:href="#ma920b60192" x="324.313043" y="218.16" style="fill: #ff7f0e; stroke: #ff7f0e"/>
     <use xlink:href="#ma920b60192" x="372.834783" y="227.943529" style="fill: #ff7f0e; stroke: #ff7f0e"/>
     <use xlink:href="#ma920b60192" x="236.973913" y="306.211765" style="fill: #ff7f0e; stroke: #ff7f0e"/>
     <use xlink:href="#ma920b60192" x="334.017391" y="257.294118" style="fill: #ff7f0e; stroke: #ff7f0e"/>
     <use xlink:href="#ma920b60192" x="256.382609" y="257.294118" style="fill: #ff7f0e; stroke: #ff7f0e"/>
     <use xlink:href="#ma920b60192" x="314.608696" y="208.376471" style="fill: #ff7f0e; stroke: #ff7f0e"/>
     <use xlink:href="#ma920b60192" x="178.747826" y="296.428235" style="fill: #ff7f0e; stroke: #ff7f0e"/>
     <use xlink:href="#ma920b60192" x="343.721739" y="247.510588" style="fill: #ff7f0e; stroke: #ff7f0e"/>
     <use xlink:href="#ma920b60192" x="207.86087" y="267.077647" style="fill: #ff7f0e; stroke: #ff7f0e"/>
     <use xlink:href="#ma920b60192" x="188.452174" y="335.562353" style="fill: #ff7f0e; stroke: #ff7f0e"/>
     <use xlink:href="#ma920b60192" x="275.791304" y="237.727059" style="fill: #ff7f0e; stroke: #ff7f0e"/>
     <use xlink:href="#ma920b60192" x="285.495652" y="315.995294" style="fill: #ff7f0e; stroke: #ff7f0e"/>
     <use xlink:href="#ma920b60192" x="295.2" y="247.510588" style="fill: #ff7f0e; stroke: #ff7f0e"/>
     <use xlink:href="#ma920b60192" x="246.678261" y="247.510588" style="fill: #ff7f0e; stroke: #ff7f0e"/>
     <use xlink:href="#ma920b60192" x="353.426087" y="227.943529" style="fill: #ff7f0e; stroke: #ff7f0e"/>
     <use xlink:href="#ma920b60192" x="246.678261" y="237.727059" style="fill: #ff7f0e; stroke: #ff7f0e"/>
     <use xlink:href="#ma920b60192" x="266.086957" y="267.077647" style="fill: #ff7f0e; stroke: #ff7f0e"/>
     <use xlink:href="#ma920b60192" x="304.904348" y="315.995294" style="fill: #ff7f0e; stroke: #ff7f0e"/>
     <use xlink:href="#ma920b60192" x="246.678261" y="286.644706" style="fill: #ff7f0e; stroke: #ff7f0e"/>
     <use xlink:href="#ma920b60192" x="275.791304" y="218.16" style="fill: #ff7f0e; stroke: #ff7f0e"/>
     <use xlink:href="#ma920b60192" x="295.2" y="257.294118" style="fill: #ff7f0e; stroke: #ff7f0e"/>
     <use xlink:href="#ma920b60192" x="314.608696" y="286.644706" style="fill: #ff7f0e; stroke: #ff7f0e"/>
     <use xlink:href="#ma920b60192" x="295.2" y="257.294118" style="fill: #ff7f0e; stroke: #ff7f0e"/>
     <use xlink:href="#ma920b60192" x="324.313043" y="247.510588" style="fill: #ff7f0e; stroke: #ff7f0e"/>
     <use xlink:href="#ma920b60192" x="343.721739" y="237.727059" style="fill: #ff7f0e; stroke: #ff7f0e"/>
     <use xlink:href="#ma920b60192" x="363.130435" y="257.294118" style="fill: #ff7f0e; stroke: #ff7f0e"/>
     <use xlink:href="#ma920b60192" x="353.426087" y="237.727059" style="fill: #ff7f0e; stroke: #ff7f0e"/>
     <use xlink:href="#ma920b60192" x="285.495652" y="247.510588" style="fill: #ff7f0e; stroke: #ff7f0e"/>
     <use xlink:href="#ma920b60192" x="256.382609" y="276.861176" style="fill: #ff7f0e; stroke: #ff7f0e"/>
     <use xlink:href="#ma920b60192" x="236.973913" y="296.428235" style="fill: #ff7f0e; stroke: #ff7f0e"/>
     <use xlink:href="#ma920b60192" x="236.973913" y="296.428235" style="fill: #ff7f0e; stroke: #ff7f0e"/>
     <use xlink:href="#ma920b60192" x="266.086957" y="267.077647" style="fill: #ff7f0e; stroke: #ff7f0e"/>
     <use xlink:href="#ma920b60192" x="285.495652" y="267.077647" style="fill: #ff7f0e; stroke: #ff7f0e"/>
     <use xlink:href="#ma920b60192" x="227.269565" y="237.727059" style="fill: #ff7f0e; stroke: #ff7f0e"/>
     <use xlink:href="#ma920b60192" x="285.495652" y="198.592941" style="fill: #ff7f0e; stroke: #ff7f0e"/>
     <use xlink:href="#ma920b60192" x="353.426087" y="227.943529" style="fill: #ff7f0e; stroke: #ff7f0e"/>
     <use xlink:href="#ma920b60192" x="314.608696" y="306.211765" style="fill: #ff7f0e; stroke: #ff7f0e"/>
     <use xlink:href="#ma920b60192" x="246.678261" y="237.727059" style="fill: #ff7f0e; stroke: #ff7f0e"/>
     <use xlink:href="#ma920b60192" x="236.973913" y="286.644706" style="fill: #ff7f0e; stroke: #ff7f0e"/>
     <use xlink:href="#ma920b60192" x="236.973913" y="276.861176" style="fill: #ff7f0e; stroke: #ff7f0e"/>
     <use xlink:href="#ma920b60192" x="295.2" y="237.727059" style="fill: #ff7f0e; stroke: #ff7f0e"/>
     <use xlink:href="#ma920b60192" x="266.086957" y="276.861176" style="fill: #ff7f0e; stroke: #ff7f0e"/>
     <use xlink:href="#ma920b60192" x="188.452174" y="306.211765" style="fill: #ff7f0e; stroke: #ff7f0e"/>
     <use xlink:href="#ma920b60192" x="246.678261" y="267.077647" style="fill: #ff7f0e; stroke: #ff7f0e"/>
     <use xlink:href="#ma920b60192" x="256.382609" y="237.727059" style="fill: #ff7f0e; stroke: #ff7f0e"/>
     <use xlink:href="#ma920b60192" x="256.382609" y="247.510588" style="fill: #ff7f0e; stroke: #ff7f0e"/>
     <use xlink:href="#ma920b60192" x="304.904348" y="247.510588" style="fill: #ff7f0e; stroke: #ff7f0e"/>
     <use xlink:href="#ma920b60192" x="198.156522" y="286.644706" style="fill: #ff7f0e; stroke: #ff7f0e"/>
     <use xlink:href="#ma920b60192" x="256.382609" y="257.294118" style="fill: #ff7f0e; stroke: #ff7f0e"/>
    </g>
   </g>
   <g id="PathCollection_3">
    <defs>
     <path id="m2104f221a0" d="M 0 3 
C 0.795609 3 1.55874 2.683901 2.12132 2.12132 
C 2.683901 1.55874 3 0.795609 3 0 
C 3 -0.795609 2.683901 -1.55874 2.12132 -2.12132 
C 1.55874 -2.683901 0.795609 -3 0 -3 
C -0.795609 -3 -1.55874 -2.683901 -2.12132 -2.12132 
C -2.683901 -1.55874 -3 -0.795609 -3 0 
C -3 0.795609 -2.683901 1.55874 -2.12132 2.12132 
C -1.55874 2.683901 -0.795609 3 0 3 
z
" style="stroke: #2ca02c"/>
    </defs>
    <g clip-path="url(#p8bf30ab03d)">
     <use xlink:href="#m2104f221a0" x="314.608696" y="208.376471" style="fill: #2ca02c; stroke: #2ca02c"/>
     <use xlink:href="#m2104f221a0" x="266.086957" y="267.077647" style="fill: #2ca02c; stroke: #2ca02c"/>
     <use xlink:href="#m2104f221a0" x="392.243478" y="237.727059" style="fill: #2ca02c; stroke: #2ca02c"/>
     <use xlink:href="#m2104f221a0" x="314.608696" y="247.510588" style="fill: #2ca02c; stroke: #2ca02c"/>
     <use xlink:href="#m2104f221a0" x="334.017391" y="237.727059" style="fill: #2ca02c; stroke: #2ca02c"/>
     <use xlink:href="#m2104f221a0" x="440.765217" y="237.727059" style="fill: #2ca02c; stroke: #2ca02c"/>
     <use xlink:href="#m2104f221a0" x="178.747826" y="286.644706" style="fill: #2ca02c; stroke: #2ca02c"/>
     <use xlink:href="#m2104f221a0" x="411.652174" y="247.510588" style="fill: #2ca02c; stroke: #2ca02c"/>
     <use xlink:href="#m2104f221a0" x="353.426087" y="286.644706" style="fill: #2ca02c; stroke: #2ca02c"/>
     <use xlink:href="#m2104f221a0" x="401.947826" y="179.025882" style="fill: #2ca02c; stroke: #2ca02c"/>
     <use xlink:href="#m2104f221a0" x="334.017391" y="218.16" style="fill: #2ca02c; stroke: #2ca02c"/>
     <use xlink:href="#m2104f221a0" x="324.313043" y="267.077647" style="fill: #2ca02c; stroke: #2ca02c"/>
     <use xlink:href="#m2104f221a0" x="363.130435" y="237.727059" style="fill: #2ca02c; stroke: #2ca02c"/>
     <use xlink:href="#m2104f221a0" x="256.382609" y="286.644706" style="fill: #2ca02c; stroke: #2ca02c"/>
     <use xlink:href="#m2104f221a0" x="266.086957" y="257.294118" style="fill: #2ca02c; stroke: #2ca02c"/>
     <use xlink:href="#m2104f221a0" x="324.313043" y="218.16" style="fill: #2ca02c; stroke: #2ca02c"/>
     <use xlink:href="#m2104f221a0" x="334.017391" y="237.727059" style="fill: #2ca02c; stroke: #2ca02c"/>
     <use xlink:href="#m2104f221a0" x="450.469565" y="159.458824" style="fill: #2ca02c; stroke: #2ca02c"/>
     <use xlink:href="#m2104f221a0" x="450.469565" y="276.861176" style="fill: #2ca02c; stroke: #2ca02c"/>
     <use xlink:href="#m2104f221a0" x="285.495652" y="315.995294" style="fill: #2ca02c; stroke: #2ca02c"/>
     <use xlink:href="#m2104f221a0" x="372.834783" y="218.16" style="fill: #2ca02c; stroke: #2ca02c"/>
     <use xlink:href="#m2104f221a0" x="246.678261" y="257.294118" style="fill: #2ca02c; stroke: #2ca02c"/>
     <use xlink:href="#m2104f221a0" x="450.469565" y="257.294118" style="fill: #2ca02c; stroke: #2ca02c"/>
     <use xlink:href="#m2104f221a0" x="314.608696" y="267.077647" style="fill: #2ca02c; stroke: #2ca02c"/>
     <use xlink:href="#m2104f221a0" x="353.426087" y="208.376471" style="fill: #2ca02c; stroke: #2ca02c"/>
     <use xlink:href="#m2104f221a0" x="401.947826" y="218.16" style="fill: #2ca02c; stroke: #2ca02c"/>
     <use xlink:href="#m2104f221a0" x="304.904348" y="257.294118" style="fill: #2ca02c; stroke: #2ca02c"/>
     <use xlink:href="#m2104f221a0" x="295.2" y="237.727059" style="fill: #2ca02c; stroke: #2ca02c"/>
     <use xlink:href="#m2104f221a0" x="324.313043" y="257.294118" style="fill: #2ca02c; stroke: #2ca02c"/>
     <use xlink:href="#m2104f221a0" x="401.947826" y="237.727059" style="fill: #2ca02c; stroke: #2ca02c"/>
     <use xlink:href="#m2104f221a0" x="421.356522" y="257.294118" style="fill: #2ca02c; stroke: #2ca02c"/>
     <use xlink:href="#m2104f221a0" x="469.878261" y="159.458824" style="fill: #2ca02c; stroke: #2ca02c"/>
     <use xlink:href="#m2104f221a0" x="324.313043" y="257.294118" style="fill: #2ca02c; stroke: #2ca02c"/>
     <use xlink:href="#m2104f221a0" x="314.608696" y="257.294118" style="fill: #2ca02c; stroke: #2ca02c"/>
     <use xlink:href="#m2104f221a0" x="295.2" y="276.861176" style="fill: #2ca02c; stroke: #2ca02c"/>
     <use xlink:href="#m2104f221a0" x="450.469565" y="237.727059" style="fill: #2ca02c; stroke: #2ca02c"/>
     <use xlink:href="#m2104f221a0" x="314.608696" y="198.592941" style="fill: #2ca02c; stroke: #2ca02c"/>
     <use xlink:href="#m2104f221a0" x="324.313043" y="227.943529" style="fill: #2ca02c; stroke: #2ca02c"/>
     <use xlink:href="#m2104f221a0" x="285.495652" y="237.727059" style="fill: #2ca02c; stroke: #2ca02c"/>
     <use xlink:href="#m2104f221a0" x="372.834783" y="227.943529" style="fill: #2ca02c; stroke: #2ca02c"/>
     <use xlink:href="#m2104f221a0" x="353.426087" y="227.943529" style="fill: #2ca02c; stroke: #2ca02c"/>
     <use xlink:href="#m2104f221a0" x="372.834783" y="227.943529" style="fill: #2ca02c; stroke: #2ca02c"/>
     <use xlink:href="#m2104f221a0" x="266.086957" y="267.077647" style="fill: #2ca02c; stroke: #2ca02c"/>
     <use xlink:href="#m2104f221a0" x="363.130435" y="218.16" style="fill: #2ca02c; stroke: #2ca02c"/>
     <use xlink:href="#m2104f221a0" x="353.426087" y="208.376471" style="fill: #2ca02c; stroke: #2ca02c"/>
     <use xlink:href="#m2104f221a0" x="353.426087" y="237.727059" style="fill: #2ca02c; stroke: #2ca02c"/>
     <use xlink:href="#m2104f221a0" x="314.608696" y="286.644706" style="fill: #2ca02c; stroke: #2ca02c"/>
     <use xlink:href="#m2104f221a0" x="334.017391" y="237.727059" style="fill: #2ca02c; stroke: #2ca02c"/>
     <use xlink:href="#m2104f221a0" x="304.904348" y="198.592941" style="fill: #2ca02c; stroke: #2ca02c"/>
     <use xlink:href="#m2104f221a0" x="275.791304" y="237.727059" style="fill: #2ca02c; stroke: #2ca02c"/>
    </g>
   </g>
   <g id="PathCollection_4">
    <defs>
     <path id="m89745eb166" d="M -3 3 
L 3 -3 
M -3 -3 
L 3 3 
" style="stroke: #ff0000; stroke-width: 1.5"/>
    </defs>
    <g clip-path="url(#p8bf30ab03d)">
     <use xlink:href="#m89745eb166" x="372.834783" y="237.727059" style="fill: #ff0000; stroke: #ff0000; stroke-width: 1.5"/>
    </g>
   </g>
   <g id="matplotlib.axis_1">
    <g id="text_1">
     <!-- Sepal length -->
     <g transform="translate(263.795312 399.578438) scale(0.1 -0.1)">
      <defs>
       <path id="DejaVuSans-53" d="M 3425 4513 
L 3425 3897 
Q 3066 4069 2747 4153 
Q 2428 4238 2131 4238 
Q 1616 4238 1336 4038 
Q 1056 3838 1056 3469 
Q 1056 3159 1242 3001 
Q 1428 2844 1947 2747 
L 2328 2669 
Q 3034 2534 3370 2195 
Q 3706 1856 3706 1288 
Q 3706 609 3251 259 
Q 2797 -91 1919 -91 
Q 1588 -91 1214 -16 
Q 841 59 441 206 
L 441 856 
Q 825 641 1194 531 
Q 1563 422 1919 422 
Q 2459 422 2753 634 
Q 3047 847 3047 1241 
Q 3047 1584 2836 1778 
Q 2625 1972 2144 2069 
L 1759 2144 
Q 1053 2284 737 2584 
Q 422 2884 422 3419 
Q 422 4038 858 4394 
Q 1294 4750 2059 4750 
Q 2388 4750 2728 4690 
Q 3069 4631 3425 4513 
z
" transform="scale(0.015625)"/>
       <path id="DejaVuSans-65" d="M 3597 1894 
L 3597 1613 
L 953 1613 
Q 991 1019 1311 708 
Q 1631 397 2203 397 
Q 2534 397 2845 478 
Q 3156 559 3463 722 
L 3463 178 
Q 3153 47 2828 -22 
Q 2503 -91 2169 -91 
Q 1331 -91 842 396 
Q 353 884 353 1716 
Q 353 2575 817 3079 
Q 1281 3584 2069 3584 
Q 2775 3584 3186 3129 
Q 3597 2675 3597 1894 
z
M 3022 2063 
Q 3016 2534 2758 2815 
Q 2500 3097 2075 3097 
Q 1594 3097 1305 2825 
Q 1016 2553 972 2059 
L 3022 2063 
z
" transform="scale(0.015625)"/>
       <path id="DejaVuSans-70" d="M 1159 525 
L 1159 -1331 
L 581 -1331 
L 581 3500 
L 1159 3500 
L 1159 2969 
Q 1341 3281 1617 3432 
Q 1894 3584 2278 3584 
Q 2916 3584 3314 3078 
Q 3713 2572 3713 1747 
Q 3713 922 3314 415 
Q 2916 -91 2278 -91 
Q 1894 -91 1617 61 
Q 1341 213 1159 525 
z
M 3116 1747 
Q 3116 2381 2855 2742 
Q 2594 3103 2138 3103 
Q 1681 3103 1420 2742 
Q 1159 2381 1159 1747 
Q 1159 1113 1420 752 
Q 1681 391 2138 391 
Q 2594 391 2855 752 
Q 3116 1113 3116 1747 
z
" transform="scale(0.015625)"/>
       <path id="DejaVuSans-61" d="M 2194 1759 
Q 1497 1759 1228 1600 
Q 959 1441 959 1056 
Q 959 750 1161 570 
Q 1363 391 1709 391 
Q 2188 391 2477 730 
Q 2766 1069 2766 1631 
L 2766 1759 
L 2194 1759 
z
M 3341 1997 
L 3341 0 
L 2766 0 
L 2766 531 
Q 2569 213 2275 61 
Q 1981 -91 1556 -91 
Q 1019 -91 701 211 
Q 384 513 384 1019 
Q 384 1609 779 1909 
Q 1175 2209 1959 2209 
L 2766 2209 
L 2766 2266 
Q 2766 2663 2505 2880 
Q 2244 3097 1772 3097 
Q 1472 3097 1187 3025 
Q 903 2953 641 2809 
L 641 3341 
Q 956 3463 1253 3523 
Q 1550 3584 1831 3584 
Q 2591 3584 2966 3190 
Q 3341 2797 3341 1997 
z
" transform="scale(0.015625)"/>
       <path id="DejaVuSans-6c" d="M 603 4863 
L 1178 4863 
L 1178 0 
L 603 0 
L 603 4863 
z
" transform="scale(0.015625)"/>
       <path id="DejaVuSans-20" transform="scale(0.015625)"/>
       <path id="DejaVuSans-6e" d="M 3513 2113 
L 3513 0 
L 2938 0 
L 2938 2094 
Q 2938 2591 2744 2837 
Q 2550 3084 2163 3084 
Q 1697 3084 1428 2787 
Q 1159 2491 1159 1978 
L 1159 0 
L 581 0 
L 581 3500 
L 1159 3500 
L 1159 2956 
Q 1366 3272 1645 3428 
Q 1925 3584 2291 3584 
Q 2894 3584 3203 3211 
Q 3513 2838 3513 2113 
z
" transform="scale(0.015625)"/>
       <path id="DejaVuSans-67" d="M 2906 1791 
Q 2906 2416 2648 2759 
Q 2391 3103 1925 3103 
Q 1463 3103 1205 2759 
Q 947 2416 947 1791 
Q 947 1169 1205 825 
Q 1463 481 1925 481 
Q 2391 481 2648 825 
Q 2906 1169 2906 1791 
z
M 3481 434 
Q 3481 -459 3084 -895 
Q 2688 -1331 1869 -1331 
Q 1566 -1331 1297 -1286 
Q 1028 -1241 775 -1147 
L 775 -588 
Q 1028 -725 1275 -790 
Q 1522 -856 1778 -856 
Q 2344 -856 2625 -561 
Q 2906 -266 2906 331 
L 2906 616 
Q 2728 306 2450 153 
Q 2172 0 1784 0 
Q 1141 0 747 490 
Q 353 981 353 1791 
Q 353 2603 747 3093 
Q 1141 3584 1784 3584 
Q 2172 3584 2450 3431 
Q 2728 3278 2906 2969 
L 2906 3500 
L 3481 3500 
L 3481 434 
z
" transform="scale(0.015625)"/>
       <path id="DejaVuSans-74" d="M 1172 4494 
L 1172 3500 
L 2356 3500 
L 2356 3053 
L 1172 3053 
L 1172 1153 
Q 1172 725 1289 603 
Q 1406 481 1766 481 
L 2356 481 
L 2356 0 
L 1766 0 
Q 1100 0 847 248 
Q 594 497 594 1153 
L 594 3053 
L 172 3053 
L 172 3500 
L 594 3500 
L 594 4494 
L 1172 4494 
z
" transform="scale(0.015625)"/>
       <path id="DejaVuSans-68" d="M 3513 2113 
L 3513 0 
L 2938 0 
L 2938 2094 
Q 2938 2591 2744 2837 
Q 2550 3084 2163 3084 
Q 1697 3084 1428 2787 
Q 1159 2491 1159 1978 
L 1159 0 
L 581 0 
L 581 4863 
L 1159 4863 
L 1159 2956 
Q 1366 3272 1645 3428 
Q 1925 3584 2291 3584 
Q 2894 3584 3203 3211 
Q 3513 2838 3513 2113 
z
" transform="scale(0.015625)"/>
      </defs>
      <use xlink:href="#DejaVuSans-53"/>
      <use xlink:href="#DejaVuSans-65" x="63.476562"/>
      <use xlink:href="#DejaVuSans-70" x="125"/>
      <use xlink:href="#DejaVuSans-61" x="188.476562"/>
      <use xlink:href="#DejaVuSans-6c" x="249.755859"/>
      <use xlink:href="#DejaVuSans-20" x="277.539062"/>
      <use xlink:href="#DejaVuSans-6c" x="309.326172"/>
      <use xlink:href="#DejaVuSans-65" x="337.109375"/>
      <use xlink:href="#DejaVuSans-6e" x="398.632812"/>
      <use xlink:href="#DejaVuSans-67" x="462.011719"/>
      <use xlink:href="#DejaVuSans-74" x="525.488281"/>
      <use xlink:href="#DejaVuSans-68" x="564.697266"/>
     </g>
    </g>
   </g>
   <g id="matplotlib.axis_2">
    <g id="text_2">
     <!-- Sepal width -->
     <g transform="translate(62.420312 247.408437) rotate(-90) scale(0.1 -0.1)">
      <defs>
       <path id="DejaVuSans-77" d="M 269 3500 
L 844 3500 
L 1563 769 
L 2278 3500 
L 2956 3500 
L 3675 769 
L 4391 3500 
L 4966 3500 
L 4050 0 
L 3372 0 
L 2619 2869 
L 1863 0 
L 1184 0 
L 269 3500 
z
" transform="scale(0.015625)"/>
       <path id="DejaVuSans-69" d="M 603 3500 
L 1178 3500 
L 1178 0 
L 603 0 
L 603 3500 
z
M 603 4863 
L 1178 4863 
L 1178 4134 
L 603 4134 
L 603 4863 
z
" transform="scale(0.015625)"/>
       <path id="DejaVuSans-64" d="M 2906 2969 
L 2906 4863 
L 3481 4863 
L 3481 0 
L 2906 0 
L 2906 525 
Q 2725 213 2448 61 
Q 2172 -91 1784 -91 
Q 1150 -91 751 415 
Q 353 922 353 1747 
Q 353 2572 751 3078 
Q 1150 3584 1784 3584 
Q 2172 3584 2448 3432 
Q 2725 3281 2906 2969 
z
M 947 1747 
Q 947 1113 1208 752 
Q 1469 391 1925 391 
Q 2381 391 2643 752 
Q 2906 1113 2906 1747 
Q 2906 2381 2643 2742 
Q 2381 3103 1925 3103 
Q 1469 3103 1208 2742 
Q 947 2381 947 1747 
z
" transform="scale(0.015625)"/>
      </defs>
      <use xlink:href="#DejaVuSans-53"/>
      <use xlink:href="#DejaVuSans-65" x="63.476562"/>
      <use xlink:href="#DejaVuSans-70" x="125"/>
      <use xlink:href="#DejaVuSans-61" x="188.476562"/>
      <use xlink:href="#DejaVuSans-6c" x="249.755859"/>
      <use xlink:href="#DejaVuSans-20" x="277.539062"/>
      <use xlink:href="#DejaVuSans-77" x="309.326172"/>
      <use xlink:href="#DejaVuSans-69" x="391.113281"/>
      <use xlink:href="#DejaVuSans-64" x="418.896484"/>
      <use xlink:href="#DejaVuSans-74" x="482.373047"/>
      <use xlink:href="#DejaVuSans-68" x="521.582031"/>
     </g>
    </g>
   </g>
   <g id="patch_3">
    <path d="M 72 384.48 
L 72 51.84 
" style="fill: none; stroke: #000000; stroke-width: 0.8; stroke-linejoin: miter; stroke-linecap: square"/>
   </g>
   <g id="patch_4">
    <path d="M 518.4 384.48 
L 518.4 51.84 
" style="fill: none; stroke: #000000; stroke-width: 0.8; stroke-linejoin: miter; stroke-linecap: square"/>
   </g>
   <g id="patch_5">
    <path d="M 72 384.48 
L 518.4 384.48 
" style="fill: none; stroke: #000000; stroke-width: 0.8; stroke-linejoin: miter; stroke-linecap: square"/>
   </g>
   <g id="patch_6">
    <path d="M 72 51.84 
L 518.4 51.84 
" style="fill: none; stroke: #000000; stroke-width: 0.8; stroke-linejoin: miter; stroke-linecap: square"/>
   </g>
   <g id="legend_1">
    <g id="patch_7">
     <path d="M 430.604687 103.874375 
L 511.4 103.874375 
Q 513.4 103.874375 513.4 101.874375 
L 513.4 58.84 
Q 513.4 56.84 511.4 56.84 
L 430.604687 56.84 
Q 428.604687 56.84 428.604687 58.84 
L 428.604687 101.874375 
Q 428.604687 103.874375 430.604687 103.874375 
z
" style="fill: #ffffff; opacity: 0.8; stroke: #cccccc; stroke-linejoin: miter"/>
    </g>
    <g id="PathCollection_5">
     <g>
      <use xlink:href="#m01440bb05a" x="442.604687" y="65.813437" style="fill: #1f77b4; stroke: #1f77b4"/>
     </g>
    </g>
    <g id="text_3">
     <!-- setosa -->
     <g transform="translate(460.604687 68.438437) scale(0.1 -0.1)">
      <defs>
       <path id="DejaVuSans-73" d="M 2834 3397 
L 2834 2853 
Q 2591 2978 2328 3040 
Q 2066 3103 1784 3103 
Q 1356 3103 1142 2972 
Q 928 2841 928 2578 
Q 928 2378 1081 2264 
Q 1234 2150 1697 2047 
L 1894 2003 
Q 2506 1872 2764 1633 
Q 3022 1394 3022 966 
Q 3022 478 2636 193 
Q 2250 -91 1575 -91 
Q 1294 -91 989 -36 
Q 684 19 347 128 
L 347 722 
Q 666 556 975 473 
Q 1284 391 1588 391 
Q 1994 391 2212 530 
Q 2431 669 2431 922 
Q 2431 1156 2273 1281 
Q 2116 1406 1581 1522 
L 1381 1569 
Q 847 1681 609 1914 
Q 372 2147 372 2553 
Q 372 3047 722 3315 
Q 1072 3584 1716 3584 
Q 2034 3584 2315 3537 
Q 2597 3491 2834 3397 
z
" transform="scale(0.015625)"/>
       <path id="DejaVuSans-6f" d="M 1959 3097 
Q 1497 3097 1228 2736 
Q 959 2375 959 1747 
Q 959 1119 1226 758 
Q 1494 397 1959 397 
Q 2419 397 2687 759 
Q 2956 1122 2956 1747 
Q 2956 2369 2687 2733 
Q 2419 3097 1959 3097 
z
M 1959 3584 
Q 2709 3584 3137 3096 
Q 3566 2609 3566 1747 
Q 3566 888 3137 398 
Q 2709 -91 1959 -91 
Q 1206 -91 779 398 
Q 353 888 353 1747 
Q 353 2609 779 3096 
Q 1206 3584 1959 3584 
z
" transform="scale(0.015625)"/>
      </defs>
      <use xlink:href="#DejaVuSans-73"/>
      <use xlink:href="#DejaVuSans-65" x="52.099609"/>
      <use xlink:href="#DejaVuSans-74" x="113.623047"/>
      <use xlink:href="#DejaVuSans-6f" x="152.832031"/>
      <use xlink:href="#DejaVuSans-73" x="214.013672"/>
      <use xlink:href="#DejaVuSans-61" x="266.113281"/>
     </g>
    </g>
    <g id="PathCollection_6">
     <g>
      <use xlink:href="#ma920b60192" x="442.604687" y="80.491562" style="fill: #ff7f0e; stroke: #ff7f0e"/>
     </g>
    </g>
    <g id="text_4">
     <!-- versicolor -->
     <g transform="translate(460.604687 83.116562) scale(0.1 -0.1)">
      <defs>
       <path id="DejaVuSans-76" d="M 191 3500 
L 800 3500 
L 1894 563 
L 2988 3500 
L 3597 3500 
L 2284 0 
L 1503 0 
L 191 3500 
z
" transform="scale(0.015625)"/>
       <path id="DejaVuSans-72" d="M 2631 2963 
Q 2534 3019 2420 3045 
Q 2306 3072 2169 3072 
Q 1681 3072 1420 2755 
Q 1159 2438 1159 1844 
L 1159 0 
L 581 0 
L 581 3500 
L 1159 3500 
L 1159 2956 
Q 1341 3275 1631 3429 
Q 1922 3584 2338 3584 
Q 2397 3584 2469 3576 
Q 2541 3569 2628 3553 
L 2631 2963 
z
" transform="scale(0.015625)"/>
       <path id="DejaVuSans-63" d="M 3122 3366 
L 3122 2828 
Q 2878 2963 2633 3030 
Q 2388 3097 2138 3097 
Q 1578 3097 1268 2742 
Q 959 2388 959 1747 
Q 959 1106 1268 751 
Q 1578 397 2138 397 
Q 2388 397 2633 464 
Q 2878 531 3122 666 
L 3122 134 
Q 2881 22 2623 -34 
Q 2366 -91 2075 -91 
Q 1284 -91 818 406 
Q 353 903 353 1747 
Q 353 2603 823 3093 
Q 1294 3584 2113 3584 
Q 2378 3584 2631 3529 
Q 2884 3475 3122 3366 
z
" transform="scale(0.015625)"/>
      </defs>
      <use xlink:href="#DejaVuSans-76"/>
      <use xlink:href="#DejaVuSans-65" x="59.179688"/>
      <use xlink:href="#DejaVuSans-72" x="120.703125"/>
      <use xlink:href="#DejaVuSans-73" x="161.816406"/>
      <use xlink:href="#DejaVuSans-69" x="213.916016"/>
      <use xlink:href="#DejaVuSans-63" x="241.699219"/>
      <use xlink:href="#DejaVuSans-6f" x="296.679688"/>
      <use xlink:href="#DejaVuSans-6c" x="357.861328"/>
      <use xlink:href="#DejaVuSans-6f" x="385.644531"/>
      <use xlink:href="#DejaVuSans-72" x="446.826172"/>
     </g>
    </g>
    <g id="PathCollection_7">
     <g>
      <use xlink:href="#m2104f221a0" x="442.604687" y="95.169687" style="fill: #2ca02c; stroke: #2ca02c"/>
     </g>
    </g>
    <g id="text_5">
     <!-- virginica -->
     <g transform="translate(460.604687 97.794687) scale(0.1 -0.1)">
      <use xlink:href="#DejaVuSans-76"/>
      <use xlink:href="#DejaVuSans-69" x="59.179688"/>
      <use xlink:href="#DejaVuSans-72" x="86.962891"/>
      <use xlink:href="#DejaVuSans-67" x="126.326172"/>
      <use xlink:href="#DejaVuSans-69" x="189.802734"/>
      <use xlink:href="#DejaVuSans-6e" x="217.585938"/>
      <use xlink:href="#DejaVuSans-69" x="280.964844"/>
      <use xlink:href="#DejaVuSans-63" x="308.748047"/>
      <use xlink:href="#DejaVuSans-61" x="363.728516"/>
     </g>
    </g>
   </g>
  </g>
 </g>
 <defs>
  <clipPath id="p8bf30ab03d">
   <rect x="72" y="51.84" width="446.4" height="332.64"/>
  </clipPath>
 </defs>
</svg>
