<?xml version="1.0" encoding="utf-8" standalone="no"?>
<!DOCTYPE svg PUBLIC "-//W3C//DTD SVG 1.1//EN"
  "http://www.w3.org/Graphics/SVG/1.1/DTD/svg11.dtd">
<svg xmlns:xlink="http://www.w3.org/1999/xlink" width="460.8pt" height="345.6pt" viewBox="0 0 460.8 345.6" xmlns="http://www.w3.org/2000/svg" version="1.1">
 <metadata>
  <rdf:RDF xmlns:dc="http://purl.org/dc/elements/1.1/" xmlns:cc="http://creativecommons.org/ns#" xmlns:rdf="http://www.w3.org/1999/02/22-rdf-syntax-ns#">
   <cc:Work>
    <dc:type rdf:resource="http://purl.org/dc/dcmitype/StillImage"/>
    <dc:date>2022-10-31T12:08:39.802334</dc:date>
    <dc:format>image/svg+xml</dc:format>
    <dc:creator>
     <cc:Agent>
      <dc:title>Matplotlib v3.6.1, https://matplotlib.org/</dc:title>
     </cc:Agent>
    </dc:creator>
   </cc:Work>
  </rdf:RDF>
 </metadata>
 <defs>
  <style type="text/css">*{stroke-linejoin: round; stroke-linecap: butt}</style>
 </defs>
 <g id="figure_1">
  <g id="patch_1">
   <path d="M 0 345.6 
L 460.8 345.6 
L 460.8 0 
L 0 0 
L 0 345.6 
z
" style="fill: none"/>
  </g>
  <g id="axes_1">
   <g id="patch_2">
    <path d="M 57.6 307.584 
L 414.72 307.584 
L 414.72 41.472 
L 57.6 41.472 
L 57.6 307.584 
z
" style="fill: none"/>
   </g>
   <g id="PathCollection_1">
    <defs>
     <path id="m86b1e9890b" d="M 0 3 
C 0.795609 3 1.55874 2.683901 2.12132 2.12132 
C 2.683901 1.55874 3 0.795609 3 0 
C 3 -0.795609 2.683901 -1.55874 2.12132 -2.12132 
C 1.55874 -2.683901 0.795609 -3 0 -3 
C -0.795609 -3 -1.55874 -2.683901 -2.12132 -2.12132 
C -2.683901 -1.55874 -3 -0.795609 -3 0 
C -3 0.795609 -2.683901 1.55874 -2.12132 2.12132 
C -1.55874 2.683901 -0.795609 3 0 3 
z
" style="stroke: #000000"/>
    </defs>
    <g clip-path="url(#p5175fa59a7)">
     <use xlink:href="#m86b1e9890b" x="158.525217" y="151.047529" style="stroke: #000000"/>
     <use xlink:href="#m86b1e9890b" x="142.998261" y="190.181647" style="stroke: #000000"/>
     <use xlink:href="#m86b1e9890b" x="127.471304" y="174.528" style="stroke: #000000"/>
     <use xlink:href="#m86b1e9890b" x="119.707826" y="182.354824" style="stroke: #000000"/>
     <use xlink:href="#m86b1e9890b" x="150.761739" y="143.220706" style="stroke: #000000"/>
     <use xlink:href="#m86b1e9890b" x="181.815652" y="119.740235" style="stroke: #000000"/>
     <use xlink:href="#m86b1e9890b" x="119.707826" y="158.874353" style="stroke: #000000"/>
     <use xlink:href="#m86b1e9890b" x="150.761739" y="158.874353" style="stroke: #000000"/>
     <use xlink:href="#m86b1e9890b" x="104.18087" y="198.008471" style="stroke: #000000"/>
     <use xlink:href="#m86b1e9890b" x="142.998261" y="182.354824" style="stroke: #000000"/>
     <use xlink:href="#m86b1e9890b" x="181.815652" y="135.393882" style="stroke: #000000"/>
     <use xlink:href="#m86b1e9890b" x="135.234783" y="158.874353" style="stroke: #000000"/>
     <use xlink:href="#m86b1e9890b" x="135.234783" y="190.181647" style="stroke: #000000"/>
     <use xlink:href="#m86b1e9890b" x="96.417391" y="190.181647" style="stroke: #000000"/>
     <use xlink:href="#m86b1e9890b" x="212.869565" y="111.913412" style="stroke: #000000"/>
     <use xlink:href="#m86b1e9890b" x="205.106087" y="80.606118" style="stroke: #000000"/>
     <use xlink:href="#m86b1e9890b" x="181.815652" y="119.740235" style="stroke: #000000"/>
     <use xlink:href="#m86b1e9890b" x="158.525217" y="151.047529" style="stroke: #000000"/>
     <use xlink:href="#m86b1e9890b" x="205.106087" y="127.567059" style="stroke: #000000"/>
     <use xlink:href="#m86b1e9890b" x="158.525217" y="127.567059" style="stroke: #000000"/>
     <use xlink:href="#m86b1e9890b" x="181.815652" y="158.874353" style="stroke: #000000"/>
     <use xlink:href="#m86b1e9890b" x="158.525217" y="135.393882" style="stroke: #000000"/>
     <use xlink:href="#m86b1e9890b" x="119.707826" y="143.220706" style="stroke: #000000"/>
     <use xlink:href="#m86b1e9890b" x="158.525217" y="166.701176" style="stroke: #000000"/>
     <use xlink:href="#m86b1e9890b" x="135.234783" y="158.874353" style="stroke: #000000"/>
     <use xlink:href="#m86b1e9890b" x="150.761739" y="190.181647" style="stroke: #000000"/>
     <use xlink:href="#m86b1e9890b" x="150.761739" y="158.874353" style="stroke: #000000"/>
     <use xlink:href="#m86b1e9890b" x="166.288696" y="151.047529" style="stroke: #000000"/>
     <use xlink:href="#m86b1e9890b" x="166.288696" y="158.874353" style="stroke: #000000"/>
     <use xlink:href="#m86b1e9890b" x="127.471304" y="174.528" style="stroke: #000000"/>
     <use xlink:href="#m86b1e9890b" x="135.234783" y="182.354824" style="stroke: #000000"/>
     <use xlink:href="#m86b1e9890b" x="181.815652" y="158.874353" style="stroke: #000000"/>
     <use xlink:href="#m86b1e9890b" x="166.288696" y="104.086588" style="stroke: #000000"/>
     <use xlink:href="#m86b1e9890b" x="189.57913" y="96.259765" style="stroke: #000000"/>
     <use xlink:href="#m86b1e9890b" x="142.998261" y="182.354824" style="stroke: #000000"/>
     <use xlink:href="#m86b1e9890b" x="150.761739" y="174.528" style="stroke: #000000"/>
     <use xlink:href="#m86b1e9890b" x="189.57913" y="151.047529" style="stroke: #000000"/>
     <use xlink:href="#m86b1e9890b" x="142.998261" y="143.220706" style="stroke: #000000"/>
     <use xlink:href="#m86b1e9890b" x="104.18087" y="190.181647" style="stroke: #000000"/>
     <use xlink:href="#m86b1e9890b" x="158.525217" y="158.874353" style="stroke: #000000"/>
     <use xlink:href="#m86b1e9890b" x="150.761739" y="151.047529" style="stroke: #000000"/>
     <use xlink:href="#m86b1e9890b" x="111.944348" y="244.969412" style="stroke: #000000"/>
     <use xlink:href="#m86b1e9890b" x="104.18087" y="174.528" style="stroke: #000000"/>
     <use xlink:href="#m86b1e9890b" x="150.761739" y="151.047529" style="stroke: #000000"/>
     <use xlink:href="#m86b1e9890b" x="158.525217" y="127.567059" style="stroke: #000000"/>
     <use xlink:href="#m86b1e9890b" x="135.234783" y="190.181647" style="stroke: #000000"/>
     <use xlink:href="#m86b1e9890b" x="158.525217" y="127.567059" style="stroke: #000000"/>
     <use xlink:href="#m86b1e9890b" x="119.707826" y="174.528" style="stroke: #000000"/>
     <use xlink:href="#m86b1e9890b" x="174.052174" y="135.393882" style="stroke: #000000"/>
     <use xlink:href="#m86b1e9890b" x="150.761739" y="166.701176" style="stroke: #000000"/>
     <use xlink:href="#m86b1e9890b" x="306.031304" y="174.528" style="stroke: #000000"/>
     <use xlink:href="#m86b1e9890b" x="259.450435" y="174.528" style="stroke: #000000"/>
     <use xlink:href="#m86b1e9890b" x="298.267826" y="182.354824" style="stroke: #000000"/>
     <use xlink:href="#m86b1e9890b" x="189.57913" y="244.969412" style="stroke: #000000"/>
     <use xlink:href="#m86b1e9890b" x="267.213913" y="205.835294" style="stroke: #000000"/>
     <use xlink:href="#m86b1e9890b" x="205.106087" y="205.835294" style="stroke: #000000"/>
     <use xlink:href="#m86b1e9890b" x="251.686957" y="166.701176" style="stroke: #000000"/>
     <use xlink:href="#m86b1e9890b" x="142.998261" y="237.142588" style="stroke: #000000"/>
     <use xlink:href="#m86b1e9890b" x="274.977391" y="198.008471" style="stroke: #000000"/>
     <use xlink:href="#m86b1e9890b" x="166.288696" y="213.662118" style="stroke: #000000"/>
     <use xlink:href="#m86b1e9890b" x="150.761739" y="268.449882" style="stroke: #000000"/>
     <use xlink:href="#m86b1e9890b" x="220.633043" y="190.181647" style="stroke: #000000"/>
     <use xlink:href="#m86b1e9890b" x="228.396522" y="252.796235" style="stroke: #000000"/>
     <use xlink:href="#m86b1e9890b" x="236.16" y="198.008471" style="stroke: #000000"/>
     <use xlink:href="#m86b1e9890b" x="197.342609" y="198.008471" style="stroke: #000000"/>
     <use xlink:href="#m86b1e9890b" x="282.74087" y="182.354824" style="stroke: #000000"/>
     <use xlink:href="#m86b1e9890b" x="197.342609" y="190.181647" style="stroke: #000000"/>
     <use xlink:href="#m86b1e9890b" x="212.869565" y="213.662118" style="stroke: #000000"/>
     <use xlink:href="#m86b1e9890b" x="243.923478" y="252.796235" style="stroke: #000000"/>
     <use xlink:href="#m86b1e9890b" x="197.342609" y="229.315765" style="stroke: #000000"/>
     <use xlink:href="#m86b1e9890b" x="220.633043" y="174.528" style="stroke: #000000"/>
     <use xlink:href="#m86b1e9890b" x="236.16" y="205.835294" style="stroke: #000000"/>
     <use xlink:href="#m86b1e9890b" x="251.686957" y="229.315765" style="stroke: #000000"/>
     <use xlink:href="#m86b1e9890b" x="236.16" y="205.835294" style="stroke: #000000"/>
     <use xlink:href="#m86b1e9890b" x="259.450435" y="198.008471" style="stroke: #000000"/>
     <use xlink:href="#m86b1e9890b" x="274.977391" y="190.181647" style="stroke: #000000"/>
     <use xlink:href="#m86b1e9890b" x="290.504348" y="205.835294" style="stroke: #000000"/>
     <use xlink:href="#m86b1e9890b" x="282.74087" y="190.181647" style="stroke: #000000"/>
     <use xlink:href="#m86b1e9890b" x="228.396522" y="198.008471" style="stroke: #000000"/>
     <use xlink:href="#m86b1e9890b" x="205.106087" y="221.488941" style="stroke: #000000"/>
     <use xlink:href="#m86b1e9890b" x="189.57913" y="237.142588" style="stroke: #000000"/>
     <use xlink:href="#m86b1e9890b" x="189.57913" y="237.142588" style="stroke: #000000"/>
     <use xlink:href="#m86b1e9890b" x="212.869565" y="213.662118" style="stroke: #000000"/>
     <use xlink:href="#m86b1e9890b" x="228.396522" y="213.662118" style="stroke: #000000"/>
     <use xlink:href="#m86b1e9890b" x="181.815652" y="190.181647" style="stroke: #000000"/>
     <use xlink:href="#m86b1e9890b" x="228.396522" y="158.874353" style="stroke: #000000"/>
     <use xlink:href="#m86b1e9890b" x="282.74087" y="182.354824" style="stroke: #000000"/>
     <use xlink:href="#m86b1e9890b" x="251.686957" y="244.969412" style="stroke: #000000"/>
     <use xlink:href="#m86b1e9890b" x="197.342609" y="190.181647" style="stroke: #000000"/>
     <use xlink:href="#m86b1e9890b" x="189.57913" y="229.315765" style="stroke: #000000"/>
     <use xlink:href="#m86b1e9890b" x="189.57913" y="221.488941" style="stroke: #000000"/>
     <use xlink:href="#m86b1e9890b" x="236.16" y="190.181647" style="stroke: #000000"/>
     <use xlink:href="#m86b1e9890b" x="212.869565" y="221.488941" style="stroke: #000000"/>
     <use xlink:href="#m86b1e9890b" x="150.761739" y="244.969412" style="stroke: #000000"/>
     <use xlink:href="#m86b1e9890b" x="197.342609" y="213.662118" style="stroke: #000000"/>
     <use xlink:href="#m86b1e9890b" x="205.106087" y="190.181647" style="stroke: #000000"/>
     <use xlink:href="#m86b1e9890b" x="205.106087" y="198.008471" style="stroke: #000000"/>
     <use xlink:href="#m86b1e9890b" x="243.923478" y="198.008471" style="stroke: #000000"/>
     <use xlink:href="#m86b1e9890b" x="158.525217" y="229.315765" style="stroke: #000000"/>
     <use xlink:href="#m86b1e9890b" x="205.106087" y="205.835294" style="stroke: #000000"/>
     <use xlink:href="#m86b1e9890b" x="251.686957" y="166.701176" style="stroke: #000000"/>
     <use xlink:href="#m86b1e9890b" x="212.869565" y="213.662118" style="stroke: #000000"/>
     <use xlink:href="#m86b1e9890b" x="313.794783" y="190.181647" style="stroke: #000000"/>
     <use xlink:href="#m86b1e9890b" x="251.686957" y="198.008471" style="stroke: #000000"/>
     <use xlink:href="#m86b1e9890b" x="267.213913" y="190.181647" style="stroke: #000000"/>
     <use xlink:href="#m86b1e9890b" x="352.612174" y="190.181647" style="stroke: #000000"/>
     <use xlink:href="#m86b1e9890b" x="142.998261" y="229.315765" style="stroke: #000000"/>
     <use xlink:href="#m86b1e9890b" x="329.321739" y="198.008471" style="stroke: #000000"/>
     <use xlink:href="#m86b1e9890b" x="282.74087" y="229.315765" style="stroke: #000000"/>
     <use xlink:href="#m86b1e9890b" x="321.558261" y="143.220706" style="stroke: #000000"/>
     <use xlink:href="#m86b1e9890b" x="267.213913" y="174.528" style="stroke: #000000"/>
     <use xlink:href="#m86b1e9890b" x="259.450435" y="213.662118" style="stroke: #000000"/>
     <use xlink:href="#m86b1e9890b" x="290.504348" y="190.181647" style="stroke: #000000"/>
     <use xlink:href="#m86b1e9890b" x="205.106087" y="229.315765" style="stroke: #000000"/>
     <use xlink:href="#m86b1e9890b" x="212.869565" y="205.835294" style="stroke: #000000"/>
     <use xlink:href="#m86b1e9890b" x="259.450435" y="174.528" style="stroke: #000000"/>
     <use xlink:href="#m86b1e9890b" x="267.213913" y="190.181647" style="stroke: #000000"/>
     <use xlink:href="#m86b1e9890b" x="360.375652" y="127.567059" style="stroke: #000000"/>
     <use xlink:href="#m86b1e9890b" x="360.375652" y="221.488941" style="stroke: #000000"/>
     <use xlink:href="#m86b1e9890b" x="228.396522" y="252.796235" style="stroke: #000000"/>
     <use xlink:href="#m86b1e9890b" x="298.267826" y="174.528" style="stroke: #000000"/>
     <use xlink:href="#m86b1e9890b" x="197.342609" y="205.835294" style="stroke: #000000"/>
     <use xlink:href="#m86b1e9890b" x="360.375652" y="205.835294" style="stroke: #000000"/>
     <use xlink:href="#m86b1e9890b" x="251.686957" y="213.662118" style="stroke: #000000"/>
     <use xlink:href="#m86b1e9890b" x="282.74087" y="166.701176" style="stroke: #000000"/>
     <use xlink:href="#m86b1e9890b" x="321.558261" y="174.528" style="stroke: #000000"/>
     <use xlink:href="#m86b1e9890b" x="243.923478" y="205.835294" style="stroke: #000000"/>
     <use xlink:href="#m86b1e9890b" x="236.16" y="190.181647" style="stroke: #000000"/>
     <use xlink:href="#m86b1e9890b" x="259.450435" y="205.835294" style="stroke: #000000"/>
     <use xlink:href="#m86b1e9890b" x="321.558261" y="190.181647" style="stroke: #000000"/>
     <use xlink:href="#m86b1e9890b" x="337.085217" y="205.835294" style="stroke: #000000"/>
     <use xlink:href="#m86b1e9890b" x="375.902609" y="127.567059" style="stroke: #000000"/>
     <use xlink:href="#m86b1e9890b" x="259.450435" y="205.835294" style="stroke: #000000"/>
     <use xlink:href="#m86b1e9890b" x="251.686957" y="205.835294" style="stroke: #000000"/>
     <use xlink:href="#m86b1e9890b" x="236.16" y="221.488941" style="stroke: #000000"/>
     <use xlink:href="#m86b1e9890b" x="360.375652" y="190.181647" style="stroke: #000000"/>
     <use xlink:href="#m86b1e9890b" x="251.686957" y="158.874353" style="stroke: #000000"/>
     <use xlink:href="#m86b1e9890b" x="259.450435" y="182.354824" style="stroke: #000000"/>
     <use xlink:href="#m86b1e9890b" x="228.396522" y="190.181647" style="stroke: #000000"/>
     <use xlink:href="#m86b1e9890b" x="298.267826" y="182.354824" style="stroke: #000000"/>
     <use xlink:href="#m86b1e9890b" x="282.74087" y="182.354824" style="stroke: #000000"/>
     <use xlink:href="#m86b1e9890b" x="298.267826" y="182.354824" style="stroke: #000000"/>
     <use xlink:href="#m86b1e9890b" x="212.869565" y="213.662118" style="stroke: #000000"/>
     <use xlink:href="#m86b1e9890b" x="290.504348" y="174.528" style="stroke: #000000"/>
     <use xlink:href="#m86b1e9890b" x="282.74087" y="166.701176" style="stroke: #000000"/>
     <use xlink:href="#m86b1e9890b" x="282.74087" y="190.181647" style="stroke: #000000"/>
     <use xlink:href="#m86b1e9890b" x="251.686957" y="229.315765" style="stroke: #000000"/>
     <use xlink:href="#m86b1e9890b" x="267.213913" y="190.181647" style="stroke: #000000"/>
     <use xlink:href="#m86b1e9890b" x="243.923478" y="158.874353" style="stroke: #000000"/>
     <use xlink:href="#m86b1e9890b" x="220.633043" y="190.181647" style="stroke: #000000"/>
    </g>
   </g>
   <g id="PathCollection_2">
    <defs>
     <path id="mdef19a993c" d="M -3 3 
L 3 -3 
M -3 -3 
L 3 3 
" style="stroke: #ff0000; stroke-width: 1.5"/>
    </defs>
    <g clip-path="url(#p5175fa59a7)">
     <use xlink:href="#mdef19a993c" x="298.267826" y="190.181647" style="fill: #ff0000; stroke: #ff0000; stroke-width: 1.5"/>
    </g>
   </g>
   <g id="matplotlib.axis_1">
    <g id="text_1">
     <!-- Sepal length -->
     <g transform="translate(204.755313 322.682437) scale(0.1 -0.1)">
      <defs>
       <path id="DejaVuSans-53" d="M 3425 4513 
L 3425 3897 
Q 3066 4069 2747 4153 
Q 2428 4238 2131 4238 
Q 1616 4238 1336 4038 
Q 1056 3838 1056 3469 
Q 1056 3159 1242 3001 
Q 1428 2844 1947 2747 
L 2328 2669 
Q 3034 2534 3370 2195 
Q 3706 1856 3706 1288 
Q 3706 609 3251 259 
Q 2797 -91 1919 -91 
Q 1588 -91 1214 -16 
Q 841 59 441 206 
L 441 856 
Q 825 641 1194 531 
Q 1563 422 1919 422 
Q 2459 422 2753 634 
Q 3047 847 3047 1241 
Q 3047 1584 2836 1778 
Q 2625 1972 2144 2069 
L 1759 2144 
Q 1053 2284 737 2584 
Q 422 2884 422 3419 
Q 422 4038 858 4394 
Q 1294 4750 2059 4750 
Q 2388 4750 2728 4690 
Q 3069 4631 3425 4513 
z
" transform="scale(0.015625)"/>
       <path id="DejaVuSans-65" d="M 3597 1894 
L 3597 1613 
L 953 1613 
Q 991 1019 1311 708 
Q 1631 397 2203 397 
Q 2534 397 2845 478 
Q 3156 559 3463 722 
L 3463 178 
Q 3153 47 2828 -22 
Q 2503 -91 2169 -91 
Q 1331 -91 842 396 
Q 353 884 353 1716 
Q 353 2575 817 3079 
Q 1281 3584 2069 3584 
Q 2775 3584 3186 3129 
Q 3597 2675 3597 1894 
z
M 3022 2063 
Q 3016 2534 2758 2815 
Q 2500 3097 2075 3097 
Q 1594 3097 1305 2825 
Q 1016 2553 972 2059 
L 3022 2063 
z
" transform="scale(0.015625)"/>
       <path id="DejaVuSans-70" d="M 1159 525 
L 1159 -1331 
L 581 -1331 
L 581 3500 
L 1159 3500 
L 1159 2969 
Q 1341 3281 1617 3432 
Q 1894 3584 2278 3584 
Q 2916 3584 3314 3078 
Q 3713 2572 3713 1747 
Q 3713 922 3314 415 
Q 2916 -91 2278 -91 
Q 1894 -91 1617 61 
Q 1341 213 1159 525 
z
M 3116 1747 
Q 3116 2381 2855 2742 
Q 2594 3103 2138 3103 
Q 1681 3103 1420 2742 
Q 1159 2381 1159 1747 
Q 1159 1113 1420 752 
Q 1681 391 2138 391 
Q 2594 391 2855 752 
Q 3116 1113 3116 1747 
z
" transform="scale(0.015625)"/>
       <path id="DejaVuSans-61" d="M 2194 1759 
Q 1497 1759 1228 1600 
Q 959 1441 959 1056 
Q 959 750 1161 570 
Q 1363 391 1709 391 
Q 2188 391 2477 730 
Q 2766 1069 2766 1631 
L 2766 1759 
L 2194 1759 
z
M 3341 1997 
L 3341 0 
L 2766 0 
L 2766 531 
Q 2569 213 2275 61 
Q 1981 -91 1556 -91 
Q 1019 -91 701 211 
Q 384 513 384 1019 
Q 384 1609 779 1909 
Q 1175 2209 1959 2209 
L 2766 2209 
L 2766 2266 
Q 2766 2663 2505 2880 
Q 2244 3097 1772 3097 
Q 1472 3097 1187 3025 
Q 903 2953 641 2809 
L 641 3341 
Q 956 3463 1253 3523 
Q 1550 3584 1831 3584 
Q 2591 3584 2966 3190 
Q 3341 2797 3341 1997 
z
" transform="scale(0.015625)"/>
       <path id="DejaVuSans-6c" d="M 603 4863 
L 1178 4863 
L 1178 0 
L 603 0 
L 603 4863 
z
" transform="scale(0.015625)"/>
       <path id="DejaVuSans-20" transform="scale(0.015625)"/>
       <path id="DejaVuSans-6e" d="M 3513 2113 
L 3513 0 
L 2938 0 
L 2938 2094 
Q 2938 2591 2744 2837 
Q 2550 3084 2163 3084 
Q 1697 3084 1428 2787 
Q 1159 2491 1159 1978 
L 1159 0 
L 581 0 
L 581 3500 
L 1159 3500 
L 1159 2956 
Q 1366 3272 1645 3428 
Q 1925 3584 2291 3584 
Q 2894 3584 3203 3211 
Q 3513 2838 3513 2113 
z
" transform="scale(0.015625)"/>
       <path id="DejaVuSans-67" d="M 2906 1791 
Q 2906 2416 2648 2759 
Q 2391 3103 1925 3103 
Q 1463 3103 1205 2759 
Q 947 2416 947 1791 
Q 947 1169 1205 825 
Q 1463 481 1925 481 
Q 2391 481 2648 825 
Q 2906 1169 2906 1791 
z
M 3481 434 
Q 3481 -459 3084 -895 
Q 2688 -1331 1869 -1331 
Q 1566 -1331 1297 -1286 
Q 1028 -1241 775 -1147 
L 775 -588 
Q 1028 -725 1275 -790 
Q 1522 -856 1778 -856 
Q 2344 -856 2625 -561 
Q 2906 -266 2906 331 
L 2906 616 
Q 2728 306 2450 153 
Q 2172 0 1784 0 
Q 1141 0 747 490 
Q 353 981 353 1791 
Q 353 2603 747 3093 
Q 1141 3584 1784 3584 
Q 2172 3584 2450 3431 
Q 2728 3278 2906 2969 
L 2906 3500 
L 3481 3500 
L 3481 434 
z
" transform="scale(0.015625)"/>
       <path id="DejaVuSans-74" d="M 1172 4494 
L 1172 3500 
L 2356 3500 
L 2356 3053 
L 1172 3053 
L 1172 1153 
Q 1172 725 1289 603 
Q 1406 481 1766 481 
L 2356 481 
L 2356 0 
L 1766 0 
Q 1100 0 847 248 
Q 594 497 594 1153 
L 594 3053 
L 172 3053 
L 172 3500 
L 594 3500 
L 594 4494 
L 1172 4494 
z
" transform="scale(0.015625)"/>
       <path id="DejaVuSans-68" d="M 3513 2113 
L 3513 0 
L 2938 0 
L 2938 2094 
Q 2938 2591 2744 2837 
Q 2550 3084 2163 3084 
Q 1697 3084 1428 2787 
Q 1159 2491 1159 1978 
L 1159 0 
L 581 0 
L 581 4863 
L 1159 4863 
L 1159 2956 
Q 1366 3272 1645 3428 
Q 1925 3584 2291 3584 
Q 2894 3584 3203 3211 
Q 3513 2838 3513 2113 
z
" transform="scale(0.015625)"/>
      </defs>
      <use xlink:href="#DejaVuSans-53"/>
      <use xlink:href="#DejaVuSans-65" x="63.476562"/>
      <use xlink:href="#DejaVuSans-70" x="125"/>
      <use xlink:href="#DejaVuSans-61" x="188.476562"/>
      <use xlink:href="#DejaVuSans-6c" x="249.755859"/>
      <use xlink:href="#DejaVuSans-20" x="277.539062"/>
      <use xlink:href="#DejaVuSans-6c" x="309.326172"/>
      <use xlink:href="#DejaVuSans-65" x="337.109375"/>
      <use xlink:href="#DejaVuSans-6e" x="398.632812"/>
      <use xlink:href="#DejaVuSans-67" x="462.011719"/>
      <use xlink:href="#DejaVuSans-74" x="525.488281"/>
      <use xlink:href="#DejaVuSans-68" x="564.697266"/>
     </g>
    </g>
   </g>
   <g id="matplotlib.axis_2">
    <g id="text_2">
     <!-- Sepal width -->
     <g transform="translate(48.020313 203.776437) rotate(-90) scale(0.1 -0.1)">
      <defs>
       <path id="DejaVuSans-77" d="M 269 3500 
L 844 3500 
L 1563 769 
L 2278 3500 
L 2956 3500 
L 3675 769 
L 4391 3500 
L 4966 3500 
L 4050 0 
L 3372 0 
L 2619 2869 
L 1863 0 
L 1184 0 
L 269 3500 
z
" transform="scale(0.015625)"/>
       <path id="DejaVuSans-69" d="M 603 3500 
L 1178 3500 
L 1178 0 
L 603 0 
L 603 3500 
z
M 603 4863 
L 1178 4863 
L 1178 4134 
L 603 4134 
L 603 4863 
z
" transform="scale(0.015625)"/>
       <path id="DejaVuSans-64" d="M 2906 2969 
L 2906 4863 
L 3481 4863 
L 3481 0 
L 2906 0 
L 2906 525 
Q 2725 213 2448 61 
Q 2172 -91 1784 -91 
Q 1150 -91 751 415 
Q 353 922 353 1747 
Q 353 2572 751 3078 
Q 1150 3584 1784 3584 
Q 2172 3584 2448 3432 
Q 2725 3281 2906 2969 
z
M 947 1747 
Q 947 1113 1208 752 
Q 1469 391 1925 391 
Q 2381 391 2643 752 
Q 2906 1113 2906 1747 
Q 2906 2381 2643 2742 
Q 2381 3103 1925 3103 
Q 1469 3103 1208 2742 
Q 947 2381 947 1747 
z
" transform="scale(0.015625)"/>
      </defs>
      <use xlink:href="#DejaVuSans-53"/>
      <use xlink:href="#DejaVuSans-65" x="63.476562"/>
      <use xlink:href="#DejaVuSans-70" x="125"/>
      <use xlink:href="#DejaVuSans-61" x="188.476562"/>
      <use xlink:href="#DejaVuSans-6c" x="249.755859"/>
      <use xlink:href="#DejaVuSans-20" x="277.539062"/>
      <use xlink:href="#DejaVuSans-77" x="309.326172"/>
      <use xlink:href="#DejaVuSans-69" x="391.113281"/>
      <use xlink:href="#DejaVuSans-64" x="418.896484"/>
      <use xlink:href="#DejaVuSans-74" x="482.373047"/>
      <use xlink:href="#DejaVuSans-68" x="521.582031"/>
     </g>
    </g>
   </g>
   <g id="patch_3">
    <path d="M 57.6 307.584 
L 57.6 41.472 
" style="fill: none; stroke: #000000; stroke-width: 0.8; stroke-linejoin: miter; stroke-linecap: square"/>
   </g>
   <g id="patch_4">
    <path d="M 414.72 307.584 
L 414.72 41.472 
" style="fill: none; stroke: #000000; stroke-width: 0.8; stroke-linejoin: miter; stroke-linecap: square"/>
   </g>
   <g id="patch_5">
    <path d="M 57.6 307.584 
L 414.72 307.584 
" style="fill: none; stroke: #000000; stroke-width: 0.8; stroke-linejoin: miter; stroke-linecap: square"/>
   </g>
   <g id="patch_6">
    <path d="M 57.6 41.472 
L 414.72 41.472 
" style="fill: none; stroke: #000000; stroke-width: 0.8; stroke-linejoin: miter; stroke-linecap: square"/>
   </g>
   <g id="legend_1">
    <g id="patch_7">
     <path d="M 403.72 54.472 
L 407.72 54.472 
Q 409.72 54.472 409.72 52.472 
L 409.72 48.472 
Q 409.72 46.472 407.72 46.472 
L 403.72 46.472 
Q 401.72 46.472 401.72 48.472 
L 401.72 52.472 
Q 401.72 54.472 403.72 54.472 
z
" style="fill: #ffffff; opacity: 0.8; stroke: #cccccc; stroke-linejoin: miter"/>
    </g>
   </g>
  </g>
 </g>
 <defs>
  <clipPath id="p5175fa59a7">
   <rect x="57.6" y="41.472" width="357.12" height="266.112"/>
  </clipPath>
 </defs>
</svg>
